<?xml version="1.0" standalone="no"?>
<!DOCTYPE svg PUBLIC "-//W3C//DTD SVG 20010904//EN"
 "http://www.w3.org/TR/2001/REC-SVG-20010904/DTD/svg10.dtd">
<svg version="1.0" xmlns="http://www.w3.org/2000/svg"
 width="1024.000000pt" height="1024.000000pt" viewBox="0 0 1024.000000 1024.000000"
 preserveAspectRatio="xMidYMid meet">
<metadata>
Created by potrace 1.14, written by Peter Selinger 2001-2017
</metadata>
<g transform="translate(0.000000,1024.000000) scale(0.100000,-0.100000)"
fill="#000000" stroke="none">
<path d="M0 8670 l0 -1570 495 0 494 0 3 -977 c3 -966 3 -978 24 -1013 31 -54
77 -80 140 -80 l53 0 290 235 c160 129 293 235 296 235 4 0 132 -100 286 -222
154 -123 296 -229 317 -236 63 -23 142 13 180 81 16 30 17 105 20 1005 l2 972
180 0 180 0 14 35 c30 70 111 182 190 261 127 127 264 206 445 257 73 20 101
21 634 25 l557 3 0 -973 c0 -927 1 -975 19 -1014 24 -53 71 -86 130 -92 58 -5
49 -11 386 263 l265 215 271 -216 c150 -119 286 -225 303 -235 64 -39 148 -16
200 54 21 28 21 32 24 1013 l2 984 268 0 c296 0 339 -6 443 -61 32 -17 83 -57
112 -88 98 -102 137 -210 137 -377 l0 -102 73 21 c69 20 98 21 635 25 l562 3
0 -963 c0 -620 4 -976 10 -1000 13 -45 76 -103 122 -112 20 -4 50 -1 71 6 20
7 163 116 317 241 176 143 285 225 293 220 7 -4 133 -104 282 -222 148 -118
286 -221 306 -229 69 -27 146 7 187 82 16 29 17 194 20 2574 l2 2542 -5120 0
-5120 0 0 -1570z"/>
<path d="M3740 3823 c-104 -36 -174 -111 -205 -218 -43 -148 28 -305 170 -375
l50 -25 1483 -3 1482 -2 0 320 0 320 -1467 0 c-1308 -1 -1473 -3 -1513 -17z"/>
<path d="M7265 3255 c-27 -8 -53 -14 -57 -15 -5 0 -8 -19 -8 -42 0 -39 5 -47
49 -85 30 -26 60 -65 78 -100 24 -50 28 -70 27 -138 0 -84 -16 -130 -71 -203
-14 -18 -22 -36 -18 -40 4 -4 671 -7 1483 -7 l1477 0 0 320 0 320 -1455 2
c-1216 1 -1463 -1 -1505 -12z"/>
<path d="M304 3249 c-84 -24 -181 -125 -205 -212 -17 -63 -7 -184 20 -235 27
-54 88 -115 140 -141 22 -11 70 -25 108 -31 45 -7 541 -10 1493 -8 l1425 3 3
48 3 48 -104 102 c-61 59 -125 133 -152 176 -45 69 -114 220 -115 249 0 9
-265 12 -1292 11 -745 0 -1306 -5 -1324 -10z"/>
<path d="M3390 2623 c0 -33 7 -44 53 -84 28 -25 63 -68 77 -95 22 -42 25 -62
25 -144 0 -109 -17 -152 -85 -220 -55 -55 -107 -79 -198 -91 -50 -6 -631 -9
-1670 -7 l-1592 3 0 -992 0 -993 5120 0 5120 0 0 995 0 995 -1367 2 -1368 3
-80 23 c-265 77 -494 264 -606 494 l-23 48 -1555 2 -1556 3 -76 22 c-41 12
-103 33 -137 47 -34 14 -66 26 -72 26 -5 0 -10 -17 -10 -37z"/>
</g>
</svg>
